<svg width="94" height="209" viewBox="0 0 94 209" fill="none" xmlns="http://www.w3.org/2000/svg">
<g clip-path="url(#clip0_2780_10861)">
<path d="M61.5425 75.6589C60.9552 73.7144 60.0493 71.5741 59.9154 67.7523C59.7816 63.9305 58.6818 59.2116 58.5376 58.0788C58.3941 56.946 59.008 53.7186 59.2106 50.609C59.4132 47.4994 57.8128 43.3152 56.6177 41.8054C55.4225 40.2955 51.6419 39.0824 49.9527 38.3142C49.1392 37.9438 47.6726 37.5004 46.3702 37.1402C45.0331 36.6585 42.6435 35.7445 41.5283 34.9874C39.933 33.9054 38.8843 33.6314 38.8089 31.4624C38.7327 29.2933 38.8658 27.1684 39.3554 26.3244C39.845 25.4803 40.0913 23.6103 40.0913 23.6103C40.0913 23.6103 41.1252 23.4711 41.7073 22.3133C42.29 21.1555 43.9444 17.9951 42.9889 17.408C42.6909 17.2247 42.3973 17.1621 42.134 17.1628C42.3241 16.3136 42.4505 14.2822 42.7434 13.383C43.1183 12.2325 43.0422 10.0634 43.0096 9.13322C42.9771 8.20373 41.5638 6.39115 41.2236 5.57582C40.8834 4.76049 40.1793 5.40494 40.1793 5.40494C40.1793 5.40494 39.7282 4.38633 38.9657 3.37877C38.2032 2.37121 36.0148 2.13699 36.0148 2.13699L36.2478 2.85289C36.2478 2.85289 34.8884 2.58995 33.8405 2.31597C32.7925 2.04198 31.0257 2 31.0257 2L31.1551 2.71958C31.1551 2.71958 29.1841 2.78808 27.8685 3.76471C26.5528 4.74134 24.4509 6.98626 23.8467 7.52392C23.2425 8.06232 22.8712 9.31588 22.8852 9.72907C22.9 10.1423 23.5139 15.8091 23.6285 16.1155C23.0065 16.1368 22.835 17.1775 22.9895 18.6196C23.1441 20.0625 23.6019 21.2873 24.039 21.8927C24.4753 22.4982 25.3125 22.6757 25.3125 22.6757C25.3125 22.6757 25.7355 25.867 25.8724 26.7928C26.0084 27.7186 26.3701 32.1017 25.7696 32.7432C25.169 33.3847 23.3674 35.3085 20.5031 36.5458C20.3899 36.5945 20.2761 36.6453 20.1622 36.6976C17.9508 37.4849 15.1183 38.4939 13.8374 38.9491C11.581 39.7512 8.59457 40.4759 7.31512 42.4852C6.03567 44.4944 4.60313 48.0606 4.80059 50.7423C4.9988 53.424 4.79246 56.4305 4.13128 58.3152C3.47011 60.2 3.13139 71.2773 2.38886 73.7852C1.64633 76.293 1.7802 80.1148 1.32684 81.9922C0.873486 83.8696 0.213791 88.7528 0.634605 94.8401C1.05542 100.927 1.11385 102.579 0.971109 104.447C0.829112 106.313 1.40524 107.948 1.44887 109.188C1.4925 110.427 0.987379 116.753 0.997733 117.063C1.00883 117.373 2.39774 121.462 3.04929 122.266C3.70085 123.071 4.43007 123.149 4.43007 123.149C4.43007 123.149 5.41073 124.459 6.67688 125.036C7.94302 125.613 8.55834 125.384 8.55834 125.384C8.55834 125.384 10.036 126.057 10.1033 125.021C10.1706 123.984 8.22405 121.776 8.18042 120.537C8.13678 119.297 7.93562 116.512 8.45406 116.494C8.97249 116.476 8.7521 119.069 9.63219 120.487C10.5123 121.904 11.5573 122.075 11.6357 121.348C11.7141 120.621 10.7031 115.485 10.334 113.843C9.96499 112.201 8.43335 109.979 7.86388 108.551C7.29441 107.123 6.80334 104.969 7.11026 101.855C7.41644 98.7422 9.43398 91.1229 9.41476 87.6067C9.39553 84.0913 10.6713 81.9782 10.5914 79.7061C10.5115 77.4339 11.4582 74.8156 11.9507 71.0748C12.4122 67.5667 12.39 65.8948 13.1843 64.0513C13.4365 64.5992 13.671 65.1354 13.8366 65.6311C14.4165 67.3693 14.9401 70.4531 15.6641 73.3241C16.3881 76.1943 16.8718 78.1432 16.6329 80.2194C16.3941 82.2964 15.6116 83.6678 15.9059 86.1396C16.1433 88.1341 14.8454 93.985 14.8328 94.0366C14.6509 94.7665 13.1851 108.335 13.157 109.168C13.1022 110.797 12.6141 117.554 13.0349 122.742C13.5837 129.513 15.1131 140.549 15.5228 143.364C15.9333 146.179 14.8794 148.705 15.0939 151.866C15.3084 155.027 14.5096 158.902 14.2656 160.835C14.0215 162.767 13.1621 170.832 14.2057 176.906C15.0747 181.966 17.6728 196.154 17.6942 196.441C17.8887 199.02 17.317 200.488 17.4746 202.034C17.6328 203.58 17.6506 204.096 17.0863 205.77C16.522 207.444 15.6353 208.819 14.5451 210.305C13.455 211.791 12.4684 213.274 12.8086 214.089C13.1488 214.904 14.2116 215.591 16.8112 215.708C19.4115 215.824 21.0962 216.49 22.301 215.31C23.5057 214.131 23.5265 211.751 23.7195 211.331C23.9125 210.91 24.9006 209.598 25.26 208.623C25.7104 207.401 24.8577 205.293 24.8998 203.533C24.942 201.774 24.709 201.058 24.229 199.213C23.8903 197.911 23.8496 194.089 23.9266 193.541C24.3422 190.585 26.8116 175.109 26.4847 171.726C26.1586 168.342 25.0596 160.685 25.5943 158.177C26.1297 155.669 28.1133 150.055 28.3736 145.633C28.6339 141.211 28.5666 139.289 29.9725 131.998C31.3784 124.706 32.3214 119.016 32.4538 116.861C32.5248 115.707 32.5425 114.751 32.544 114.11C32.8058 114.094 33.0809 114.017 33.2717 113.985C33.1386 115.073 33.0314 116.831 33.3509 118.742C33.8767 121.893 36.5029 131.649 37.8267 136.809C38.8932 140.968 38.7941 146.621 39.3273 149.998C39.8613 153.375 41.4358 156.829 41.5194 159.203C41.6022 161.576 40.1682 171.02 40.7214 174.962C41.2746 178.904 43.3025 187.867 43.7817 192.659C43.9977 194.816 43.8764 198.12 43.7536 199.258C43.5968 200.711 44.1227 202.382 43.7181 204.18C43.375 205.706 43.4756 208.377 43.8084 208.986C44.1412 209.595 45.0102 209.952 45.9287 210.972C46.3503 211.44 47.2962 214.441 49.4816 214.571C51.667 214.702 55.1755 214.063 55.9831 213.414C56.7915 212.765 56.9771 212.139 56.8373 211.11C56.6976 210.08 53.4205 208.436 52.7438 206.909C52.0671 205.381 50.7721 203.978 50.7108 202.222C50.6494 200.466 50.0836 199.141 50.5081 196.438C50.5761 196.005 50.9408 193.044 51.0147 192.37C51.0887 191.695 53.5034 174.653 53.4117 169.655C53.2978 163.434 52.3533 160.298 52.1381 157.023C51.9155 153.636 51.937 148.315 51.511 145.048C51.1893 142.58 53.5603 132.414 53.3828 124.385C53.2312 117.521 52.7475 111.58 52.5493 108.827C52.3511 106.075 51.0458 94.8681 50.5007 93.7066C50.2463 91.9058 49.3448 88.4589 49.4919 87.4535C49.6598 86.3105 49.773 83.617 48.5342 80.8683C47.2954 78.1189 48.1237 75.091 48.552 72.4911C48.9802 69.8904 49.0608 66.2682 49.6502 65.3174C49.963 64.8128 50.2086 64.0483 50.3698 63.4422C50.656 64.5492 50.96 65.732 51.2639 66.9164C52.1056 70.1968 52.6018 75.4534 52.5811 77.8331C52.5604 80.2128 53.2408 81.8435 53.3384 84.6327C53.4361 87.4219 54.6038 91.1037 55.7857 95.1995C56.9675 99.2953 57.6531 104.029 57.5214 106.205C57.3898 108.381 55.4847 110.309 54.7946 111.367C54.1046 112.425 53.8095 115.848 53.456 117.619C53.1025 119.389 53.246 120.521 53.672 120.817C54.098 121.113 55.1238 120.766 55.7487 117.849C56.0297 116.535 56.1843 115.455 56.7138 115.747C57.2434 116.039 56.915 118.533 56.54 119.683C56.1651 120.833 54.1446 122.455 53.8443 122.776C53.544 123.096 53.8953 124.221 53.8953 124.221C53.8953 124.221 53.9131 124.738 54.2281 124.831C54.5432 124.923 55.884 124.669 56.6066 124.541C57.3291 124.412 60.0678 122.559 60.7689 121.811C61.4692 121.063 63.0275 118.113 63.4025 116.962C63.7774 115.812 62.9528 110.049 62.9166 109.016C62.8803 107.983 63.5341 105.892 63.1577 104.044C62.7812 102.195 63.1007 96.4958 63.2309 91.321C63.3611 86.1455 62.1267 77.6048 61.5395 75.6603L61.5425 75.6589Z" fill="white" fill-opacity="0.3"/>
<circle cx="33" cy="5" r="5" fill="white"/>
<circle cx="33" cy="58" r="5" fill="white"/>
<circle cx="61" cy="111" r="5" fill="white"/>
<circle cx="48" cy="164" r="5" fill="white"/>
<line x1="34" y1="4.5" x2="94" y2="4.5" stroke="white"/>
<line x1="34" y1="57.5" x2="94" y2="57.5" stroke="white"/>
<line x1="61" y1="110.5" x2="94" y2="110.5" stroke="white"/>
<line x1="48" y1="163.5" x2="94" y2="163.5" stroke="white"/>
</g>
<defs>
<clipPath id="clip0_2780_10861">
<rect width="94" height="211" fill="white"/>
</clipPath>
</defs>
</svg>
