<svg width="460" height="80" viewBox="0 0 460 80" fill="none" xmlns="http://www.w3.org/2000/svg">
<path d="M433.08 55L447.8 40.002L433.08 25" stroke="#FFB81C" stroke-width="4.02928" stroke-miterlimit="10"/>
<path d="M61.583 49V30.0909H67.9722C69.4495 30.0909 70.6621 30.3433 71.61 30.848C72.5579 31.3466 73.2596 32.0329 73.7151 32.907C74.1706 33.781 74.3984 34.7751 74.3984 35.8892C74.3984 37.0033 74.1706 37.9912 73.7151 38.853C73.2596 39.7147 72.561 40.3918 71.6192 40.8842C70.6775 41.3705 69.4741 41.6136 68.0092 41.6136H62.8387V39.5455H67.9353C68.9448 39.5455 69.7573 39.3977 70.3728 39.1023C70.9945 38.8068 71.4438 38.3883 71.7208 37.8466C72.0039 37.2988 72.1455 36.6463 72.1455 35.8892C72.1455 35.1321 72.0039 34.4704 71.7208 33.9041C71.4377 33.3378 70.9852 32.9008 70.3636 32.593C69.7419 32.2791 68.9201 32.1222 67.8984 32.1222H63.8728V49H61.583ZM70.4836 40.5057L75.137 49H72.4779L67.8984 40.5057H70.4836ZM77.4339 49V30.0909H88.8458V32.1222H79.7236V38.5114H88.2549V40.5426H79.7236V46.9688H88.9935V49H77.4339ZM92.1929 49V30.0909H103.531V32.1222H94.4827V38.5114H102.682V40.5426H94.4827V49H92.1929ZM106.673 49V30.0909H118.085V32.1222H108.962V38.5114H117.494V40.5426H108.962V46.9688H118.232V49H106.673ZM121.432 49V30.0909H127.821C129.298 30.0909 130.511 30.3433 131.459 30.848C132.407 31.3466 133.108 32.0329 133.564 32.907C134.019 33.781 134.247 34.7751 134.247 35.8892C134.247 37.0033 134.019 37.9912 133.564 38.853C133.108 39.7147 132.41 40.3918 131.468 40.8842C130.526 41.3705 129.323 41.6136 127.858 41.6136H122.687V39.5455H127.784C128.794 39.5455 129.606 39.3977 130.222 39.1023C130.843 38.8068 131.293 38.3883 131.57 37.8466C131.853 37.2988 131.994 36.6463 131.994 35.8892C131.994 35.1321 131.853 34.4704 131.57 33.9041C131.286 33.3378 130.834 32.9008 130.212 32.593C129.591 32.2791 128.769 32.1222 127.747 32.1222H123.722V49H121.432ZM130.332 40.5057L134.986 49H132.327L127.747 40.5057H130.332ZM137.283 49V30.0909H148.695V32.1222H139.572V38.5114H148.104V40.5426H139.572V46.9688H148.842V49H137.283ZM167.036 30.0909V49H164.82L154.516 34.1534H154.331V49H152.042V30.0909H154.258L164.599 44.9744H164.783V30.0909H167.036ZM186.054 36H183.764C183.629 35.3414 183.392 34.7628 183.053 34.2642C182.721 33.7656 182.314 33.3471 181.834 33.0085C181.36 32.6638 180.834 32.4053 180.255 32.233C179.677 32.0606 179.074 31.9744 178.446 31.9744C177.301 31.9744 176.264 32.2637 175.334 32.8423C174.411 33.4209 173.675 34.2734 173.128 35.3999C172.586 36.5263 172.315 37.9081 172.315 39.5455C172.315 41.1828 172.586 42.5646 173.128 43.6911C173.675 44.8175 174.411 45.67 175.334 46.2486C176.264 46.8272 177.301 47.1165 178.446 47.1165C179.074 47.1165 179.677 47.0303 180.255 46.858C180.834 46.6856 181.36 46.4302 181.834 46.0916C182.314 45.7469 182.721 45.3253 183.053 44.8267C183.392 44.322 183.629 43.7434 183.764 43.0909H186.054C185.881 44.0573 185.568 44.9221 185.112 45.6854C184.657 46.4486 184.09 47.098 183.413 47.6335C182.736 48.1629 181.976 48.5661 181.133 48.843C180.295 49.12 179.4 49.2585 178.446 49.2585C176.833 49.2585 175.399 48.8646 174.143 48.0767C172.888 47.2888 171.9 46.1686 171.179 44.7159C170.459 43.2633 170.099 41.5398 170.099 39.5455C170.099 37.5511 170.459 35.8277 171.179 34.375C171.9 32.9223 172.888 31.8021 174.143 31.0142C175.399 30.2263 176.833 29.8324 178.446 29.8324C179.4 29.8324 180.295 29.9709 181.133 30.2479C181.976 30.5249 182.736 30.9311 183.413 31.4666C184.09 31.996 184.657 32.6423 185.112 33.4055C185.568 34.1626 185.881 35.0275 186.054 36ZM188.974 49V30.0909H200.386V32.1222H191.264V38.5114H199.795V40.5426H191.264V46.9688H200.534V49H188.974ZM214.074 34.8182C213.963 33.8826 213.514 33.1562 212.726 32.6392C211.938 32.1222 210.972 31.8636 209.827 31.8636C208.99 31.8636 208.257 31.9991 207.629 32.2699C207.008 32.5407 206.521 32.9131 206.17 33.3871C205.826 33.861 205.653 34.3996 205.653 35.0028C205.653 35.5076 205.773 35.9415 206.013 36.3047C206.26 36.6617 206.574 36.9602 206.955 37.2003C207.337 37.4342 207.737 37.6281 208.156 37.782C208.574 37.9297 208.959 38.0497 209.31 38.142L211.23 38.6591C211.723 38.7884 212.27 38.9669 212.874 39.1946C213.483 39.4223 214.065 39.7332 214.619 40.1271C215.179 40.5149 215.64 41.0135 216.004 41.6229C216.367 42.2322 216.548 42.9801 216.548 43.8665C216.548 44.8883 216.281 45.8116 215.745 46.6364C215.216 47.4612 214.44 48.1167 213.418 48.603C212.403 49.0893 211.169 49.3324 209.716 49.3324C208.362 49.3324 207.189 49.1139 206.198 48.6768C205.213 48.2398 204.438 47.6304 203.871 46.8487C203.311 46.067 202.994 45.1591 202.92 44.125H205.284C205.346 44.839 205.586 45.4299 206.004 45.8977C206.429 46.3594 206.964 46.7041 207.611 46.9318C208.263 47.1534 208.965 47.2642 209.716 47.2642C210.59 47.2642 211.375 47.1226 212.07 46.8395C212.766 46.5502 213.317 46.1501 213.723 45.6392C214.129 45.1222 214.332 44.5189 214.332 43.8295C214.332 43.2017 214.157 42.6908 213.806 42.2969C213.455 41.9029 212.994 41.5829 212.421 41.3366C211.849 41.0904 211.23 40.875 210.565 40.6903L208.239 40.0256C206.761 39.6009 205.592 38.9946 204.73 38.2067C203.868 37.4188 203.437 36.3878 203.437 35.1136C203.437 34.0549 203.724 33.1316 204.296 32.3438C204.875 31.5497 205.65 30.9342 206.623 30.4972C207.602 30.054 208.694 29.8324 209.901 29.8324C211.119 29.8324 212.203 30.0509 213.151 30.4879C214.098 30.9188 214.849 31.5097 215.403 32.2607C215.964 33.0116 216.259 33.8641 216.29 34.8182H214.074ZM231.125 49.2585C229.882 49.2585 228.811 49.0308 227.912 48.5753C227.013 48.1198 226.321 47.495 225.835 46.701C225.348 45.907 225.105 44.9991 225.105 43.9773C225.105 43.1894 225.271 42.4908 225.604 41.8814C225.942 41.2659 226.407 40.6965 226.998 40.1733C227.595 39.6439 228.281 39.1146 229.057 38.5852L231.79 36.554C232.325 36.2031 232.753 35.8277 233.073 35.4276C233.4 35.0275 233.563 34.5043 233.563 33.858C233.563 33.3778 233.35 32.9131 232.926 32.4638C232.507 32.0144 231.956 31.7898 231.273 31.7898C230.793 31.7898 230.368 31.9129 229.999 32.1591C229.636 32.3991 229.349 32.7069 229.14 33.0824C228.937 33.4517 228.835 33.8333 228.835 34.2273C228.835 34.6705 228.955 35.1198 229.195 35.5753C229.442 36.0246 229.753 36.4863 230.128 36.9602C230.51 37.428 230.904 37.9081 231.31 38.4006L239.989 49H237.367L230.202 40.358C229.537 39.5578 228.934 38.8314 228.392 38.179C227.851 37.5265 227.42 36.8833 227.1 36.2493C226.78 35.6153 226.619 34.929 226.619 34.1903C226.619 33.3409 226.807 32.5961 227.183 31.956C227.564 31.3097 228.097 30.808 228.78 30.451C229.469 30.0878 230.276 29.9062 231.199 29.9062C232.147 29.9062 232.963 30.0909 233.646 30.4602C234.329 30.8234 234.855 31.3066 235.225 31.9098C235.594 32.5069 235.779 33.1562 235.779 33.858C235.779 34.7628 235.554 35.5476 235.105 36.2124C234.655 36.8771 234.043 37.4957 233.267 38.0682L229.5 40.875C228.651 41.5028 228.075 42.1122 227.774 42.7031C227.472 43.294 227.321 43.7187 227.321 43.9773C227.321 44.5682 227.475 45.1191 227.783 45.63C228.091 46.1409 228.525 46.5533 229.085 46.8672C229.645 47.1811 230.3 47.3381 231.051 47.3381C231.765 47.3381 232.461 47.1873 233.138 46.8857C233.815 46.5779 234.427 46.1347 234.975 45.5561C235.529 44.9775 235.966 44.282 236.286 43.4695C236.613 42.657 236.776 41.7429 236.776 40.7273H238.881C238.881 41.983 238.736 43.0078 238.447 43.8018C238.158 44.5959 237.831 45.2176 237.468 45.6669C237.105 46.1162 236.813 46.4517 236.591 46.6733C236.517 46.7656 236.45 46.858 236.388 46.9503C236.326 47.0426 236.259 47.1349 236.185 47.2273C235.575 47.9105 234.806 48.4214 233.877 48.7599C232.947 49.0923 232.03 49.2585 231.125 49.2585ZM254.284 49H248.449V30.0909H254.543C256.377 30.0909 257.947 30.4695 259.251 31.2266C260.556 31.9775 261.557 33.0578 262.252 34.4673C262.948 35.8707 263.295 37.5511 263.295 39.5085C263.295 41.4782 262.945 43.174 262.243 44.5959C261.541 46.0116 260.519 47.1011 259.178 47.8643C257.836 48.6214 256.205 49 254.284 49ZM250.739 46.9688H254.136C255.7 46.9688 256.996 46.6671 258.023 46.0639C259.051 45.4607 259.818 44.602 260.322 43.4879C260.827 42.3738 261.08 41.0473 261.08 39.5085C261.08 37.982 260.83 36.6679 260.332 35.5661C259.833 34.4581 259.088 33.6087 258.097 33.0178C257.106 32.4207 255.872 32.1222 254.395 32.1222H250.739V46.9688ZM266.356 49V30.0909H277.768V32.1222H268.646V38.5114H277.177V40.5426H268.646V46.9688H277.916V49H266.356ZM281.115 49V30.0909H292.454V32.1222H283.405V38.5114H291.604V40.5426H283.405V49H281.115ZM297.885 30.0909V49H295.595V30.0909H297.885ZM316.69 30.0909V49H314.474L304.171 34.1534H303.986V49H301.696V30.0909H303.912L314.253 44.9744H314.438V30.0909H316.69ZM322.782 30.0909V49H320.492V30.0909H322.782ZM325.559 32.1222V30.0909H339.741V32.1222H333.795V49H331.505V32.1222H325.559ZM344.785 30.0909V49H342.495V30.0909H344.785ZM364.55 39.5455C364.55 41.5398 364.19 43.2633 363.47 44.7159C362.75 46.1686 361.762 47.2888 360.506 48.0767C359.25 48.8646 357.816 49.2585 356.204 49.2585C354.591 49.2585 353.157 48.8646 351.901 48.0767C350.645 47.2888 349.657 46.1686 348.937 44.7159C348.217 43.2633 347.857 41.5398 347.857 39.5455C347.857 37.5511 348.217 35.8277 348.937 34.375C349.657 32.9223 350.645 31.8021 351.901 31.0142C353.157 30.2263 354.591 29.8324 356.204 29.8324C357.816 29.8324 359.25 30.2263 360.506 31.0142C361.762 31.8021 362.75 32.9223 363.47 34.375C364.19 35.8277 364.55 37.5511 364.55 39.5455ZM362.334 39.5455C362.334 37.9081 362.06 36.5263 361.512 35.3999C360.971 34.2734 360.235 33.4209 359.306 32.8423C358.383 32.2637 357.348 31.9744 356.204 31.9744C355.059 31.9744 354.021 32.2637 353.092 32.8423C352.169 33.4209 351.433 34.2734 350.885 35.3999C350.344 36.5263 350.073 37.9081 350.073 39.5455C350.073 41.1828 350.344 42.5646 350.885 43.6911C351.433 44.8175 352.169 45.67 353.092 46.2486C354.021 46.8272 355.059 47.1165 356.204 47.1165C357.348 47.1165 358.383 46.8272 359.306 46.2486C360.235 45.67 360.971 44.8175 361.512 43.6911C362.06 42.5646 362.334 41.1828 362.334 39.5455ZM382.615 30.0909V49H380.399L370.095 34.1534H369.91V49H367.62V30.0909H369.836L380.177 44.9744H380.362V30.0909H382.615ZM396.757 34.8182C396.647 33.8826 396.197 33.1562 395.409 32.6392C394.621 32.1222 393.655 31.8636 392.51 31.8636C391.673 31.8636 390.941 31.9991 390.313 32.2699C389.691 32.5407 389.205 32.9131 388.854 33.3871C388.509 33.861 388.337 34.3996 388.337 35.0028C388.337 35.5076 388.457 35.9415 388.697 36.3047C388.943 36.6617 389.257 36.9602 389.639 37.2003C390.02 37.4342 390.42 37.6281 390.839 37.782C391.258 37.9297 391.642 38.0497 391.993 38.142L393.914 38.6591C394.406 38.7884 394.954 38.9669 395.557 39.1946C396.166 39.4223 396.748 39.7332 397.302 40.1271C397.862 40.5149 398.324 41.0135 398.687 41.6229C399.05 42.2322 399.232 42.9801 399.232 43.8665C399.232 44.8883 398.964 45.8116 398.429 46.6364C397.899 47.4612 397.124 48.1167 396.102 48.603C395.086 49.0893 393.852 49.3324 392.399 49.3324C391.045 49.3324 389.873 49.1139 388.882 48.6768C387.897 48.2398 387.121 47.6304 386.555 46.8487C385.995 46.067 385.678 45.1591 385.604 44.125H387.968C388.029 44.839 388.269 45.4299 388.688 45.8977C389.112 46.3594 389.648 46.7041 390.294 46.9318C390.947 47.1534 391.648 47.2642 392.399 47.2642C393.273 47.2642 394.058 47.1226 394.754 46.8395C395.449 46.5502 396 46.1501 396.407 45.6392C396.813 45.1222 397.016 44.5189 397.016 43.8295C397.016 43.2017 396.84 42.6908 396.49 42.2969C396.139 41.9029 395.677 41.5829 395.105 41.3366C394.532 41.0904 393.914 40.875 393.249 40.6903L390.922 40.0256C389.445 39.6009 388.275 38.9946 387.414 38.2067C386.552 37.4188 386.121 36.3878 386.121 35.1136C386.121 34.0549 386.407 33.1316 386.98 32.3438C387.558 31.5497 388.334 30.9342 389.306 30.4972C390.285 30.054 391.378 29.8324 392.584 29.8324C393.803 29.8324 394.886 30.0509 395.834 30.4879C396.782 30.9188 397.533 31.5097 398.087 32.2607C398.647 33.0116 398.942 33.8641 398.973 34.8182H396.757Z" fill="white"/>
</svg>
