<svg width="460" height="80" viewBox="0 0 460 80" fill="none" xmlns="http://www.w3.org/2000/svg">
<path d="M435.84 55L450.56 40.002L435.84 25" stroke="#FFB81C" stroke-width="4.02928" stroke-miterlimit="10"/>
<path d="M62.234 49V30.0909H68.6232C70.1067 30.0909 71.3193 30.3587 72.261 30.8942C73.2089 31.4235 73.9106 32.1406 74.3661 33.0455C74.8216 33.9503 75.0494 34.9598 75.0494 36.0739C75.0494 37.188 74.8216 38.2005 74.3661 39.1115C73.9168 40.0225 73.2212 40.7488 72.2795 41.2905C71.3377 41.826 70.1313 42.0938 68.6602 42.0938H64.0806V40.0625H68.5863C69.6019 40.0625 70.4175 39.8871 71.033 39.5362C71.6486 39.1854 72.0948 38.7114 72.3718 38.1143C72.655 37.5111 72.7965 36.831 72.7965 36.0739C72.7965 35.3168 72.655 34.6397 72.3718 34.0426C72.0948 33.4455 71.6455 32.9777 71.0238 32.6392C70.4021 32.2945 69.5773 32.1222 68.5494 32.1222H64.5238V49H62.234ZM77.9579 49V30.0909H84.3471C85.8244 30.0909 87.037 30.3433 87.9849 30.848C88.9328 31.3466 89.6346 32.0329 90.09 32.907C90.5455 33.781 90.7733 34.7751 90.7733 35.8892C90.7733 37.0033 90.5455 37.9912 90.09 38.853C89.6346 39.7147 88.9359 40.3918 87.9942 40.8842C87.0524 41.3705 85.849 41.6136 84.3841 41.6136H79.2136V39.5455H84.3102C85.3197 39.5455 86.1322 39.3977 86.7477 39.1023C87.3694 38.8068 87.8187 38.3883 88.0957 37.8466C88.3789 37.2988 88.5204 36.6463 88.5204 35.8892C88.5204 35.1321 88.3789 34.4704 88.0957 33.9041C87.8126 33.3378 87.3602 32.9008 86.7385 32.593C86.1168 32.2791 85.2951 32.1222 84.2733 32.1222H80.2477V49H77.9579ZM86.8585 40.5057L91.5119 49H88.8528L84.2733 40.5057H86.8585ZM93.8088 49V30.0909H105.221V32.1222H96.0986V38.5114H104.63V40.5426H96.0986V46.9688H105.368V49H93.8088ZM118.909 34.8182C118.798 33.8826 118.349 33.1562 117.561 32.6392C116.773 32.1222 115.807 31.8636 114.662 31.8636C113.824 31.8636 113.092 31.9991 112.464 32.2699C111.842 32.5407 111.356 32.9131 111.005 33.3871C110.661 33.861 110.488 34.3996 110.488 35.0028C110.488 35.5076 110.608 35.9415 110.848 36.3047C111.095 36.6617 111.409 36.9602 111.79 37.2003C112.172 37.4342 112.572 37.6281 112.99 37.782C113.409 37.9297 113.794 38.0497 114.145 38.142L116.065 38.6591C116.557 38.7884 117.105 38.9669 117.708 39.1946C118.318 39.4223 118.9 39.7332 119.454 40.1271C120.014 40.5149 120.475 41.0135 120.838 41.6229C121.202 42.2322 121.383 42.9801 121.383 43.8665C121.383 44.8883 121.115 45.8116 120.58 46.6364C120.051 47.4612 119.275 48.1167 118.253 48.603C117.238 49.0893 116.003 49.3324 114.551 49.3324C113.197 49.3324 112.024 49.1139 111.033 48.6768C110.048 48.2398 109.273 47.6304 108.706 46.8487C108.146 46.067 107.829 45.1591 107.755 44.125H110.119C110.181 44.839 110.421 45.4299 110.839 45.8977C111.264 46.3594 111.799 46.7041 112.446 46.9318C113.098 47.1534 113.8 47.2642 114.551 47.2642C115.425 47.2642 116.21 47.1226 116.905 46.8395C117.601 46.5502 118.152 46.1501 118.558 45.6392C118.964 45.1222 119.167 44.5189 119.167 43.8295C119.167 43.2017 118.992 42.6908 118.641 42.2969C118.29 41.9029 117.829 41.5829 117.256 41.3366C116.684 41.0904 116.065 40.875 115.4 40.6903L113.074 40.0256C111.596 39.6009 110.427 38.9946 109.565 38.2067C108.703 37.4188 108.272 36.3878 108.272 35.1136C108.272 34.0549 108.559 33.1316 109.131 32.3438C109.71 31.5497 110.485 30.9342 111.458 30.4972C112.436 30.054 113.529 29.8324 114.735 29.8324C115.954 29.8324 117.038 30.0509 117.985 30.4879C118.933 30.9188 119.684 31.5097 120.238 32.2607C120.798 33.0116 121.094 33.8641 121.125 34.8182H118.909ZM139.584 36H137.294C137.159 35.3414 136.922 34.7628 136.583 34.2642C136.251 33.7656 135.845 33.3471 135.364 33.0085C134.89 32.6638 134.364 32.4053 133.786 32.233C133.207 32.0606 132.604 31.9744 131.976 31.9744C130.831 31.9744 129.794 32.2637 128.864 32.8423C127.941 33.4209 127.206 34.2734 126.658 35.3999C126.116 36.5263 125.845 37.9081 125.845 39.5455C125.845 41.1828 126.116 42.5646 126.658 43.6911C127.206 44.8175 127.941 45.67 128.864 46.2486C129.794 46.8272 130.831 47.1165 131.976 47.1165C132.604 47.1165 133.207 47.0303 133.786 46.858C134.364 46.6856 134.89 46.4302 135.364 46.0916C135.845 45.7469 136.251 45.3253 136.583 44.8267C136.922 44.322 137.159 43.7434 137.294 43.0909H139.584C139.412 44.0573 139.098 44.9221 138.642 45.6854C138.187 46.4486 137.62 47.098 136.943 47.6335C136.266 48.1629 135.506 48.5661 134.663 48.843C133.826 49.12 132.93 49.2585 131.976 49.2585C130.363 49.2585 128.929 48.8646 127.673 48.0767C126.418 47.2888 125.43 46.1686 124.71 44.7159C123.989 43.2633 123.629 41.5398 123.629 39.5455C123.629 37.5511 123.989 35.8277 124.71 34.375C125.43 32.9223 126.418 31.8021 127.673 31.0142C128.929 30.2263 130.363 29.8324 131.976 29.8324C132.93 29.8324 133.826 29.9709 134.663 30.2479C135.506 30.5249 136.266 30.9311 136.943 31.4666C137.62 31.996 138.187 32.6423 138.642 33.4055C139.098 34.1626 139.412 35.0275 139.584 36ZM142.504 49V30.0909H148.893C150.37 30.0909 151.583 30.3433 152.531 30.848C153.479 31.3466 154.181 32.0329 154.636 32.907C155.092 33.781 155.319 34.7751 155.319 35.8892C155.319 37.0033 155.092 37.9912 154.636 38.853C154.181 39.7147 153.482 40.3918 152.54 40.8842C151.598 41.3705 150.395 41.6136 148.93 41.6136H143.76V39.5455H148.856C149.866 39.5455 150.678 39.3977 151.294 39.1023C151.915 38.8068 152.365 38.3883 152.642 37.8466C152.925 37.2988 153.066 36.6463 153.066 35.8892C153.066 35.1321 152.925 34.4704 152.642 33.9041C152.359 33.3378 151.906 32.9008 151.284 32.593C150.663 32.2791 149.841 32.1222 148.819 32.1222H144.794V49H142.504ZM151.405 40.5057L156.058 49H153.399L148.819 40.5057H151.405ZM160.645 30.0909V49H158.355V30.0909H160.645ZM164.456 49V30.0909H171.066C172.384 30.0909 173.47 30.3187 174.326 30.7741C175.181 31.2235 175.818 31.8298 176.237 32.593C176.655 33.3501 176.865 34.1903 176.865 35.1136C176.865 35.9261 176.72 36.5971 176.431 37.1264C176.148 37.6558 175.772 38.0743 175.304 38.3821C174.843 38.6899 174.341 38.9176 173.799 39.0653V39.25C174.378 39.2869 174.96 39.4901 175.544 39.8594C176.129 40.2287 176.619 40.758 177.012 41.4474C177.406 42.1368 177.603 42.9801 177.603 43.9773C177.603 44.9252 177.388 45.7777 176.957 46.5348C176.526 47.2919 175.846 47.892 174.917 48.3352C173.987 48.7784 172.778 49 171.288 49H164.456ZM166.745 46.9688H171.288C172.784 46.9688 173.846 46.6795 174.473 46.1009C175.107 45.5161 175.424 44.8082 175.424 43.9773C175.424 43.3371 175.261 42.7462 174.935 42.2045C174.609 41.6567 174.144 41.2197 173.541 40.8935C172.938 40.5611 172.224 40.3949 171.399 40.3949H166.745V46.9688ZM166.745 38.4006H170.993C171.682 38.4006 172.304 38.2652 172.858 37.9943C173.418 37.7235 173.861 37.3419 174.187 36.8494C174.52 36.357 174.686 35.7784 174.686 35.1136C174.686 34.2827 174.396 33.5779 173.818 32.9993C173.239 32.4145 172.322 32.1222 171.066 32.1222H166.745V38.4006ZM182.876 30.0909V49H180.586V30.0909H182.876ZM201.681 30.0909V49H199.465L189.161 34.1534H188.976V49H186.687V30.0909H188.903L199.244 44.9744H199.428V30.0909H201.681ZM218.409 36C218.206 35.3783 217.938 34.8213 217.606 34.3288C217.279 33.8303 216.889 33.4055 216.433 33.0547C215.984 32.7038 215.473 32.4361 214.9 32.2514C214.328 32.0668 213.7 31.9744 213.017 31.9744C211.897 31.9744 210.878 32.2637 209.961 32.8423C209.044 33.4209 208.314 34.2734 207.773 35.3999C207.231 36.5263 206.96 37.9081 206.96 39.5455C206.96 41.1828 207.234 42.5646 207.782 43.6911C208.33 44.8175 209.071 45.67 210.007 46.2486C210.943 46.8272 211.995 47.1165 213.165 47.1165C214.248 47.1165 215.202 46.8857 216.027 46.424C216.858 45.9562 217.504 45.2976 217.966 44.4482C218.434 43.5926 218.668 42.5862 218.668 41.429L219.369 41.5767H213.682V39.5455H220.883V41.5767C220.883 43.134 220.551 44.4882 219.886 45.6392C219.228 46.7902 218.317 47.6828 217.153 48.3168C215.996 48.9446 214.667 49.2585 213.165 49.2585C211.49 49.2585 210.019 48.8646 208.751 48.0767C207.489 47.2888 206.505 46.1686 205.797 44.7159C205.095 43.2633 204.744 41.5398 204.744 39.5455C204.744 38.0497 204.944 36.7048 205.344 35.5107C205.751 34.3104 206.323 33.2886 207.062 32.4453C207.8 31.602 208.674 30.9557 209.684 30.5064C210.693 30.0571 211.804 29.8324 213.017 29.8324C214.014 29.8324 214.944 29.9832 215.805 30.2848C216.673 30.5803 217.446 31.0019 218.123 31.5497C218.806 32.0914 219.375 32.7408 219.831 33.4979C220.286 34.2488 220.6 35.0829 220.773 36H218.409ZM232.847 30.0909V49H230.558V30.0909H232.847ZM251.653 30.0909V49H249.437L239.133 34.1534H238.948V49H236.658V30.0909H238.874L249.215 44.9744H249.4V30.0909H251.653ZM255.455 49V30.0909H266.793V32.1222H257.744V38.5114H265.943V40.5426H257.744V49H255.455ZM285.889 39.5455C285.889 41.5398 285.529 43.2633 284.809 44.7159C284.089 46.1686 283.101 47.2888 281.845 48.0767C280.589 48.8646 279.155 49.2585 277.542 49.2585C275.93 49.2585 274.496 48.8646 273.24 48.0767C271.984 47.2888 270.996 46.1686 270.276 44.7159C269.556 43.2633 269.196 41.5398 269.196 39.5455C269.196 37.5511 269.556 35.8277 270.276 34.375C270.996 32.9223 271.984 31.8021 273.24 31.0142C274.496 30.2263 275.93 29.8324 277.542 29.8324C279.155 29.8324 280.589 30.2263 281.845 31.0142C283.101 31.8021 284.089 32.9223 284.809 34.375C285.529 35.8277 285.889 37.5511 285.889 39.5455ZM283.673 39.5455C283.673 37.9081 283.399 36.5263 282.851 35.3999C282.31 34.2734 281.574 33.4209 280.645 32.8423C279.721 32.2637 278.687 31.9744 277.542 31.9744C276.397 31.9744 275.36 32.2637 274.431 32.8423C273.508 33.4209 272.772 34.2734 272.224 35.3999C271.683 36.5263 271.412 37.9081 271.412 39.5455C271.412 41.1828 271.683 42.5646 272.224 43.6911C272.772 44.8175 273.508 45.67 274.431 46.2486C275.36 46.8272 276.397 47.1165 277.542 47.1165C278.687 47.1165 279.721 46.8272 280.645 46.2486C281.574 45.67 282.31 44.8175 282.851 43.6911C283.399 42.5646 283.673 41.1828 283.673 39.5455ZM288.959 49V30.0909H295.348C296.826 30.0909 298.038 30.3433 298.986 30.848C299.934 31.3466 300.636 32.0329 301.091 32.907C301.547 33.781 301.774 34.7751 301.774 35.8892C301.774 37.0033 301.547 37.9912 301.091 38.853C300.636 39.7147 299.937 40.3918 298.995 40.8842C298.054 41.3705 296.85 41.6136 295.385 41.6136H290.215V39.5455H295.311C296.321 39.5455 297.133 39.3977 297.749 39.1023C298.371 38.8068 298.82 38.3883 299.097 37.8466C299.38 37.2988 299.522 36.6463 299.522 35.8892C299.522 35.1321 299.38 34.4704 299.097 33.9041C298.814 33.3378 298.361 32.9008 297.74 32.593C297.118 32.2791 296.296 32.1222 295.274 32.1222H291.249V49H288.959ZM297.86 40.5057L302.513 49H299.854L295.274 40.5057H297.86ZM304.81 30.0909H307.543L313.969 45.7869H314.191L320.617 30.0909H323.35V49H321.208V34.6335H321.023L315.114 49H313.046L307.137 34.6335H306.952V49H304.81V30.0909ZM327.936 49H325.536L332.479 30.0909H334.843L341.786 49H339.385L333.735 33.0824H333.587L327.936 49ZM328.823 41.6136H338.499V43.6449H328.823V41.6136ZM340.708 32.1222V30.0909H354.89V32.1222H348.944V49H346.654V32.1222H340.708ZM359.934 30.0909V49H357.644V30.0909H359.934ZM379.699 39.5455C379.699 41.5398 379.339 43.2633 378.619 44.7159C377.899 46.1686 376.911 47.2888 375.655 48.0767C374.399 48.8646 372.965 49.2585 371.353 49.2585C369.74 49.2585 368.306 48.8646 367.05 48.0767C365.794 47.2888 364.806 46.1686 364.086 44.7159C363.366 43.2633 363.006 41.5398 363.006 39.5455C363.006 37.5511 363.366 35.8277 364.086 34.375C364.806 32.9223 365.794 31.8021 367.05 31.0142C368.306 30.2263 369.74 29.8324 371.353 29.8324C372.965 29.8324 374.399 30.2263 375.655 31.0142C376.911 31.8021 377.899 32.9223 378.619 34.375C379.339 35.8277 379.699 37.5511 379.699 39.5455ZM377.483 39.5455C377.483 37.9081 377.209 36.5263 376.662 35.3999C376.12 34.2734 375.384 33.4209 374.455 32.8423C373.532 32.2637 372.498 31.9744 371.353 31.9744C370.208 31.9744 369.171 32.2637 368.241 32.8423C367.318 33.4209 366.582 34.2734 366.034 35.3999C365.493 36.5263 365.222 37.9081 365.222 39.5455C365.222 41.1828 365.493 42.5646 366.034 43.6911C366.582 44.8175 367.318 45.67 368.241 46.2486C369.171 46.8272 370.208 47.1165 371.353 47.1165C372.498 47.1165 373.532 46.8272 374.455 46.2486C375.384 45.67 376.12 44.8175 376.662 43.6911C377.209 42.5646 377.483 41.1828 377.483 39.5455ZM397.764 30.0909V49H395.548L385.244 34.1534H385.059V49H382.769V30.0909H384.985L395.326 44.9744H395.511V30.0909H397.764Z" fill="white"/>
</svg>
