<svg width="42" height="102" viewBox="0 0 42 102" fill="none" xmlns="http://www.w3.org/2000/svg">
<g clip-path="url(#clip0_2885_20916)" filter="url(#filter0_d_2885_20916)">
<path opacity="0.3" d="M12 28.684V12.6891C12 12.6891 14.9615 11 21.3417 11C26.7538 11 30 12.6891 30 12.6891V28.684C30 28.684 26.6968 26.548 21.3417 26.548C15.9866 26.548 12 28.684 12 28.684Z" fill="#F6F7F7"/>
<path d="M28.609 27.4127C28.112 27.3352 27.5045 27.2461 26.8263 27.1587L26.6951 25.3311L21.2261 24.249L21.2002 15.0994C21.2002 15.0994 20.7446 14.7002 19.4917 14.7002C18.2387 14.7002 17.897 14.9938 17.897 14.9938L17.8159 26.9146C16.0936 27.0515 14.5369 27.2527 13.4686 27.4111C12.5557 27.5463 12 28.0247 12 28.0247V89.1806C12 89.1806 16.815 89.9988 21.3417 89.9988C25.4128 89.9988 30 89.1806 30 89.1806V28.0263C30 28.0263 29.4702 27.548 28.6107 27.4127H28.609Z" fill="#F6F7F7"/>
</g>
<defs>
<filter id="filter0_d_2885_20916" x="0" y="-1" width="42" height="103" filterUnits="userSpaceOnUse" color-interpolation-filters="sRGB">
<feFlood flood-opacity="0" result="BackgroundImageFix"/>
<feColorMatrix in="SourceAlpha" type="matrix" values="0 0 0 0 0 0 0 0 0 0 0 0 0 0 0 0 0 0 127 0" result="hardAlpha"/>
<feOffset/>
<feGaussianBlur stdDeviation="6"/>
<feComposite in2="hardAlpha" operator="out"/>
<feColorMatrix type="matrix" values="0 0 0 0 0.160477 0 0 0 0 0.479069 0 0 0 0 0.42597 0 0 0 0.6 0"/>
<feBlend mode="normal" in2="BackgroundImageFix" result="effect1_dropShadow_2885_20916"/>
<feBlend mode="normal" in="SourceGraphic" in2="effect1_dropShadow_2885_20916" result="shape"/>
</filter>
<clipPath id="clip0_2885_20916">
<rect width="18" height="79" fill="white" transform="translate(12 11)"/>
</clipPath>
</defs>
</svg>
