<svg width="90" height="100" viewBox="0 0 90 100" fill="none" xmlns="http://www.w3.org/2000/svg">
<path d="M71.3448 45.25H71.4474C72.3369 45.25 73.0896 44.5568 73.1352 43.6591L74.0019 28.7841V28.6705C74.0019 28.4659 73.9677 28.2727 73.8993 28.0909C73.8993 28.0795 73.8879 28.0682 73.8879 28.0568C73.8081 27.8523 73.694 27.6705 73.5344 27.5114C73.3747 27.3523 73.1923 27.2273 72.987 27.1364H72.9756C72.7931 27.0455 72.5878 27.0114 72.3826 27H72.2685L57.3177 27.4318C56.3826 27.4545 55.6413 28.2386 55.6755 29.1705C55.6983 30.1023 56.508 30.8409 57.4203 30.8068L68.0148 30.5L54.4895 43.5795C47.7838 37.9205 37.6912 38.1477 31.2479 44.375C27.9292 47.5795 26.0704 51.8864 26.002 56.5C25.9335 61.1023 27.667 65.4659 30.8943 68.7727C34.1103 72.0795 38.4325 73.9318 43.0625 74H43.3248C47.8523 74 52.1174 72.2727 55.379 69.125C58.6976 65.9205 60.5565 61.6136 60.6249 57C60.6819 52.9659 59.359 49.1136 56.8615 46L70.3754 32.9318L69.7596 43.4773C69.6798 44.3864 70.4096 45.2045 71.3448 45.2386V45.25ZM57.2379 56.9545C57.1809 60.6591 55.6869 64.125 53.0183 66.7045C50.3498 69.2841 46.8031 70.6932 43.1082 70.6136C39.3904 70.5568 35.9121 69.0682 33.3234 66.4091C30.7347 63.75 29.332 60.25 29.389 56.5455C29.446 52.8409 30.9399 49.375 33.6085 46.7955C36.3113 44.1818 39.8124 42.8864 43.302 42.8864C46.7917 42.8864 50.5665 44.2955 53.292 47.0909C55.8922 49.7386 57.2835 53.25 57.2379 56.9545Z" fill="#FFFDFD"/>
</svg>
