<svg width="90" height="100" viewBox="0 0 90 100" fill="none" xmlns="http://www.w3.org/2000/svg">
<path d="M50.5 20C40.8508 20 33 27.8396 33 37.4751C33 46.5349 39.9401 53.9946 48.7823 54.858V65.4375H40.747C39.8017 65.4375 39.0293 66.2087 39.0293 67.1527C39.0293 68.0967 39.8017 68.868 40.747 68.868H48.7823V78.2847C48.7823 79.2287 49.5547 80 50.5 80C51.4453 80 52.2177 79.2287 52.2177 78.2847V68.868H60.253C61.1983 68.868 61.9707 68.0967 61.9707 67.1527C61.9707 66.2087 61.1983 65.4375 60.253 65.4375H52.2177V54.858C61.0599 53.9946 68 46.5234 68 37.4751C68 27.8396 60.1492 20 50.5 20ZM50.5 51.5196C42.7414 51.5196 36.4239 45.2111 36.4239 37.4635C36.4239 29.716 42.7414 23.4075 50.5 23.4075C58.2586 23.4075 64.5761 29.716 64.5761 37.4635C64.5761 45.2111 58.2586 51.5196 50.5 51.5196Z" fill="white"/>
</svg>
