<svg width="386" height="190" viewBox="0 0 386 190" fill="none" xmlns="http://www.w3.org/2000/svg">
<path d="M0 0L386 0V190L40 190C17.9086 190 0 172.091 0 150L0 0Z" fill="url(#paint0_linear_2784_10411)"/>
<path d="M59.7768 80.6012C60.0098 79.8198 60.3693 78.9597 60.4225 77.4238C60.4756 75.8879 60.912 73.9916 60.9692 73.5363C61.0261 73.0811 60.7826 71.7841 60.7021 70.5345C60.6217 69.2848 61.2568 67.6033 61.7311 66.9965C62.2053 66.3898 63.7056 65.9023 64.3759 65.5936C64.6987 65.4447 65.2807 65.2665 65.7975 65.1218C66.3281 64.9282 67.2764 64.5609 67.7189 64.2566C68.352 63.8218 68.7681 63.7117 68.7981 62.84C68.8283 61.9683 68.7755 61.1144 68.5812 60.7752C68.3869 60.436 68.2892 59.6845 68.2892 59.6845C68.2892 59.6845 67.8789 59.6286 67.6479 59.1633C67.4167 58.698 66.7601 57.4279 67.1393 57.192C67.2576 57.1183 67.3741 57.0932 67.4786 57.0935C67.4032 56.7522 67.353 55.9359 67.2368 55.5745C67.088 55.1121 67.1182 54.2405 67.1311 53.8666C67.144 53.4931 67.7049 52.7647 67.8399 52.437C67.9749 52.1094 68.2542 52.3683 68.2542 52.3683C68.2542 52.3683 68.4333 51.959 68.7358 51.5541C69.0384 51.1492 69.9068 51.0551 69.9068 51.0551L69.8144 51.3428C69.8144 51.3428 70.3538 51.2371 70.7697 51.127C71.1855 51.0169 71.8866 51 71.8866 51L71.8353 51.2892C71.8353 51.2892 72.6174 51.3167 73.1395 51.7092C73.6616 52.1017 74.4957 53.0038 74.7354 53.2199C74.9752 53.4363 75.1225 53.94 75.117 54.1061C75.1111 54.2721 74.8675 56.5494 74.822 56.6726C75.0688 56.6811 75.1369 57.0994 75.0756 57.6789C75.0142 58.2588 74.8326 58.751 74.6591 58.9943C74.486 59.2376 74.1538 59.3089 74.1538 59.3089C74.1538 59.3089 73.9859 60.5914 73.9316 60.9635C73.8776 61.3355 73.7341 63.0969 73.9724 63.3547C74.2107 63.6125 74.9256 64.3857 76.0623 64.8829C76.1072 64.9024 76.1524 64.9229 76.1976 64.9439C77.0751 65.2603 78.1991 65.6658 78.7074 65.8487C79.6028 66.171 80.7879 66.4623 81.2956 67.2697C81.8033 68.0772 82.3718 69.5103 82.2934 70.588C82.2148 71.6657 82.2966 72.8739 82.559 73.6314C82.8214 74.3888 82.9558 78.8404 83.2505 79.8482C83.5451 80.8561 83.492 82.3919 83.6719 83.1464C83.8518 83.9009 84.1136 85.8633 83.9466 88.3096C83.7796 90.7559 83.7564 91.4198 83.8131 92.1701C83.8694 92.9201 83.6408 93.5772 83.6235 94.0754C83.6061 94.5735 83.8066 97.1157 83.8025 97.2404C83.7981 97.365 83.2469 99.008 82.9884 99.3312C82.7298 99.6547 82.4404 99.6861 82.4404 99.6861C82.4404 99.6861 82.0513 100.213 81.5489 100.444C81.0464 100.676 80.8022 100.584 80.8022 100.584C80.8022 100.584 80.2159 100.855 80.1892 100.438C80.1625 100.022 80.9349 99.1344 80.9522 98.6362C80.9695 98.1381 81.0494 97.0187 80.8436 97.0116C80.6379 97.0045 80.7254 98.0463 80.3761 98.6161C80.0269 99.1856 79.6122 99.2542 79.5811 98.9621C79.55 98.67 79.9512 96.6061 80.0976 95.9463C80.244 95.2866 80.8518 94.3936 81.0778 93.8196C81.3038 93.2457 81.4987 92.38 81.3769 91.1288C81.2554 89.8777 80.4548 86.8157 80.4624 85.4027C80.47 83.99 79.9638 83.1408 79.9955 82.2277C80.0272 81.3146 79.6515 80.2623 79.4561 78.759C79.2729 77.3492 79.2817 76.6773 78.9665 75.9365C78.8665 76.1567 78.7734 76.3722 78.7077 76.5714C78.4776 77.2699 78.2698 78.5092 77.9825 79.663C77.6952 80.8164 77.5032 81.5996 77.598 82.434C77.6928 83.2686 78.0033 83.8198 77.8865 84.8131C77.7923 85.6146 78.3074 87.9659 78.3124 87.9867C78.3846 88.28 78.9662 93.7329 78.9774 94.0674C78.9991 94.7221 79.1928 97.4378 79.0258 99.5224C78.8081 102.243 78.2011 106.679 78.0386 107.81C77.8757 108.941 78.2939 109.956 78.2088 111.227C78.1237 112.497 78.4406 114.054 78.5375 114.831C78.6343 115.607 78.9753 118.848 78.5612 121.289C78.2164 123.323 77.1854 129.024 77.1769 129.14C77.0997 130.176 77.3266 130.766 77.2641 131.387C77.2013 132.009 77.1942 132.216 77.4181 132.889C77.6421 133.562 77.9939 134.114 78.4265 134.712C78.8591 135.309 79.2506 135.904 79.1156 136.232C78.9806 136.56 78.5589 136.836 77.5273 136.883C76.4954 136.929 75.8269 137.197 75.3488 136.723C74.8707 136.249 74.8625 135.293 74.7859 135.124C74.7093 134.955 74.3172 134.427 74.1746 134.035C73.9959 133.544 74.3343 132.697 74.3175 131.99C74.3008 131.283 74.3932 130.995 74.5837 130.254C74.7181 129.73 74.7343 128.195 74.7037 127.975C74.5388 126.787 73.5589 120.567 73.6886 119.208C73.818 117.848 74.2541 114.771 74.042 113.763C73.8295 112.755 73.0424 110.499 72.9391 108.722C72.8358 106.945 72.8625 106.172 72.3046 103.242C71.7466 100.312 71.3725 98.025 71.3199 97.159C71.2918 96.6954 71.2847 96.3113 71.2841 96.0537C71.1802 96.0472 71.0711 96.0162 70.9953 96.0031C71.0482 96.4406 71.0907 97.1471 70.9639 97.9152C70.7553 99.1814 69.7131 103.102 69.1878 105.175C68.7646 106.847 68.8039 109.119 68.5923 110.476C68.3804 111.833 67.7556 113.221 67.7225 114.175C67.6896 115.129 68.2586 118.924 68.0391 120.508C67.8196 122.092 67.0149 125.694 66.8247 127.62C66.739 128.487 66.7871 129.814 66.8359 130.272C66.8981 130.856 66.6894 131.527 66.8499 132.25C66.9861 132.863 66.9462 133.936 66.8141 134.181C66.6821 134.426 66.3372 134.569 65.9727 134.979C65.8055 135.167 65.4301 136.373 64.5629 136.426C63.6956 136.479 62.3034 136.222 61.9829 135.961C61.6621 135.7 61.5884 135.448 61.6439 135.035C61.6994 134.621 62.9998 133.96 63.2683 133.346C63.5369 132.733 64.0507 132.169 64.0751 131.463C64.0995 130.757 64.324 130.225 64.1555 129.138C64.1285 128.965 63.9838 127.775 63.9545 127.504C63.9251 127.233 62.9669 120.384 63.0033 118.375C63.0485 115.875 63.4233 114.615 63.5087 113.299C63.597 111.938 63.5885 109.8 63.7576 108.487C63.8852 107.495 62.9443 103.409 63.0148 100.183C63.0749 97.4245 63.2669 95.0367 63.3455 93.9306C63.4242 92.8245 63.9422 88.3208 64.1584 87.8541C64.2594 87.1304 64.6172 85.7452 64.5588 85.3411C64.4921 84.8818 64.4472 83.7993 64.9388 82.6947C65.4304 81.5898 65.1017 80.373 64.9318 79.3282C64.7618 78.2831 64.7299 76.8274 64.4959 76.4453C64.3718 76.2425 64.2744 75.9353 64.2104 75.6917C64.0968 76.1366 63.9762 76.6119 63.8556 77.0879C63.5216 78.4062 63.3247 80.5186 63.3329 81.475C63.3411 82.4313 63.0711 83.0866 63.0324 84.2075C62.9936 85.3284 62.5302 86.808 62.0612 88.454C61.5923 90.1 61.3202 92.0023 61.3724 92.8766C61.4247 93.7513 62.1807 94.5259 62.4545 94.9512C62.7283 95.3765 62.8454 96.752 62.9857 97.4635C63.126 98.1751 63.0691 98.63 62.9 98.749C62.731 98.8677 62.3239 98.7286 62.0759 97.5562C61.9644 97.0281 61.9031 96.5942 61.6929 96.7114C61.4828 96.8286 61.6131 97.8308 61.7619 98.2932C61.9107 98.7555 62.7125 99.4073 62.8316 99.536C62.9508 99.6648 62.8114 100.117 62.8114 100.117C62.8114 100.117 62.8043 100.325 62.6793 100.362C62.5543 100.399 62.0222 100.297 61.7355 100.245C61.4487 100.194 60.362 99.449 60.0838 99.1483C59.8059 98.8476 59.1875 97.6621 59.0387 97.1998C58.8899 96.7375 59.2171 94.4214 59.2315 94.0064C59.2459 93.5914 58.9865 92.7508 59.1358 92.0082C59.2852 91.2653 59.1584 88.975 59.1068 86.8954C59.0551 84.8155 59.545 81.3832 59.778 80.6018L59.7768 80.6012Z" fill="white"/>
<path d="M116.699 87V56.4545H127.378C129.506 56.4545 131.261 56.8224 132.643 57.5582C134.025 58.2841 135.054 59.2635 135.73 60.4964C136.406 61.7195 136.744 63.0767 136.744 64.5682C136.744 65.8807 136.511 66.9645 136.043 67.8196C135.586 68.6747 134.979 69.3509 134.224 69.848C133.478 70.3452 132.668 70.7131 131.793 70.9517V71.25C132.727 71.3097 133.667 71.6378 134.612 72.2344C135.556 72.831 136.347 73.6861 136.983 74.7997C137.619 75.9134 137.938 77.2756 137.938 78.8864C137.938 80.4176 137.589 81.7947 136.893 83.0178C136.197 84.2408 135.099 85.2102 133.597 85.9261C132.096 86.642 130.142 87 127.736 87H116.699ZM120.398 83.7188H127.736C130.152 83.7188 131.867 83.2514 132.881 82.3168C133.906 81.3722 134.418 80.2287 134.418 78.8864C134.418 77.8523 134.154 76.8977 133.627 76.0227C133.1 75.1378 132.349 74.4318 131.375 73.9048C130.401 73.3679 129.247 73.0994 127.915 73.0994H120.398V83.7188ZM120.398 69.8778H127.259C128.372 69.8778 129.376 69.6591 130.271 69.2216C131.176 68.7841 131.892 68.1676 132.419 67.3722C132.956 66.5767 133.224 65.642 133.224 64.5682C133.224 63.2259 132.757 62.0874 131.822 61.1527C130.888 60.2081 129.406 59.7358 127.378 59.7358H120.398V69.8778ZM169.788 71.7273C169.788 74.9489 169.206 77.733 168.043 80.0795C166.88 82.4261 165.284 84.2358 163.255 85.5085C161.227 86.7812 158.91 87.4176 156.305 87.4176C153.7 87.4176 151.383 86.7812 149.355 85.5085C147.326 84.2358 145.73 82.4261 144.567 80.0795C143.404 77.733 142.822 74.9489 142.822 71.7273C142.822 68.5057 143.404 65.7216 144.567 63.375C145.73 61.0284 147.326 59.2188 149.355 57.946C151.383 56.6733 153.7 56.0369 156.305 56.0369C158.91 56.0369 161.227 56.6733 163.255 57.946C165.284 59.2188 166.88 61.0284 168.043 63.375C169.206 65.7216 169.788 68.5057 169.788 71.7273ZM166.208 71.7273C166.208 69.0824 165.766 66.8501 164.881 65.0305C164.006 63.2109 162.818 61.8338 161.316 60.8991C159.825 59.9645 158.154 59.4972 156.305 59.4972C154.456 59.4972 152.78 59.9645 151.279 60.8991C149.787 61.8338 148.599 63.2109 147.714 65.0305C146.839 66.8501 146.402 69.0824 146.402 71.7273C146.402 74.3722 146.839 76.6044 147.714 78.424C148.599 80.2436 149.787 81.6207 151.279 82.5554C152.78 83.4901 154.456 83.9574 156.305 83.9574C158.154 83.9574 159.825 83.4901 161.316 82.5554C162.818 81.6207 164.006 80.2436 164.881 78.424C165.766 76.6044 166.208 74.3722 166.208 71.7273ZM185.434 87H176.007V56.4545H185.851C188.814 56.4545 191.35 57.0661 193.458 58.2891C195.566 59.5021 197.181 61.2472 198.305 63.5241C199.429 65.7912 199.99 68.5057 199.99 71.6676C199.99 74.8494 199.424 77.5888 198.29 79.8857C197.157 82.1726 195.506 83.9325 193.338 85.1655C191.171 86.3885 188.536 87 185.434 87ZM179.706 83.7188H185.195C187.721 83.7188 189.814 83.2315 191.474 82.2571C193.135 81.2827 194.373 79.8956 195.188 78.0959C196.003 76.2962 196.411 74.1534 196.411 71.6676C196.411 69.2017 196.008 67.0788 195.203 65.299C194.397 63.5092 193.194 62.1371 191.593 61.1825C189.993 60.218 187.999 59.7358 185.613 59.7358H179.706V83.7188ZM202.134 56.4545H206.37L214.842 70.7131H215.2L223.671 56.4545H227.907L216.87 74.4119V87H213.171V74.4119L202.134 56.4545ZM270.276 71.7273C270.276 74.9489 269.695 77.733 268.531 80.0795C267.368 82.4261 265.772 84.2358 263.744 85.5085C261.715 86.7812 259.398 87.4176 256.793 87.4176C254.188 87.4176 251.871 86.7812 249.843 85.5085C247.815 84.2358 246.219 82.4261 245.055 80.0795C243.892 77.733 243.31 74.9489 243.31 71.7273C243.31 68.5057 243.892 65.7216 245.055 63.375C246.219 61.0284 247.815 59.2188 249.843 57.946C251.871 56.6733 254.188 56.0369 256.793 56.0369C259.398 56.0369 261.715 56.6733 263.744 57.946C265.772 59.2188 267.368 61.0284 268.531 63.375C269.695 65.7216 270.276 68.5057 270.276 71.7273ZM266.697 71.7273C266.697 69.0824 266.254 66.8501 265.369 65.0305C264.494 63.2109 263.306 61.8338 261.805 60.8991C260.313 59.9645 258.643 59.4972 256.793 59.4972C254.944 59.4972 253.268 59.9645 251.767 60.8991C250.276 61.8338 249.087 63.2109 248.202 65.0305C247.327 66.8501 246.89 69.0824 246.89 71.7273C246.89 74.3722 247.327 76.6044 248.202 78.424C249.087 80.2436 250.276 81.6207 251.767 82.5554C253.268 83.4901 254.944 83.9574 256.793 83.9574C258.643 83.9574 260.313 83.4901 261.805 82.5554C263.306 81.6207 264.494 80.2436 265.369 78.424C266.254 76.6044 266.697 74.3722 266.697 71.7273ZM276.496 87V56.4545H294.811V59.7358H280.195V70.0568H293.439V73.3381H280.195V87H276.496ZM115.655 133V102.455H136.237V107.779H122.113V115.058H135.178V120.382H122.113V127.675H136.297V133H115.655ZM146.89 102.455L154.273 125.662H154.556L161.954 102.455H169.113L158.583 133H150.261L139.716 102.455H146.89ZM179.248 102.455V133H172.79V102.455H179.248ZM195.389 133H184.561V102.455H195.479C198.551 102.455 201.196 103.066 203.413 104.289C205.631 105.502 207.336 107.247 208.529 109.524C209.732 111.801 210.334 114.526 210.334 117.697C210.334 120.879 209.732 123.614 208.529 125.901C207.336 128.187 205.621 129.942 203.384 131.165C201.156 132.388 198.491 133 195.389 133ZM191.019 127.467H195.121C197.03 127.467 198.636 127.129 199.938 126.452C201.251 125.766 202.235 124.707 202.891 123.276C203.558 121.834 203.891 119.974 203.891 117.697C203.891 115.44 203.558 113.596 202.891 112.164C202.235 110.732 201.256 109.678 199.953 109.002C198.651 108.326 197.045 107.988 195.136 107.988H191.019V127.467ZM215.118 133V102.455H235.7V107.779H221.576V115.058H234.641V120.382H221.576V127.675H235.76V133H215.118ZM266.384 102.455V133H260.805L247.516 113.775H247.293V133H240.835V102.455H246.502L259.687 121.665H259.955V102.455H266.384ZM298.67 113.148H292.138C292.018 112.303 291.775 111.553 291.407 110.896C291.039 110.23 290.567 109.663 289.99 109.196C289.413 108.729 288.747 108.371 287.991 108.122C287.246 107.874 286.435 107.749 285.56 107.749C283.979 107.749 282.602 108.142 281.429 108.928C280.256 109.703 279.346 110.837 278.699 112.328C278.053 113.81 277.73 115.609 277.73 117.727C277.73 119.905 278.053 121.734 278.699 123.216C279.356 124.697 280.27 125.816 281.444 126.572C282.617 127.327 283.974 127.705 285.515 127.705C286.381 127.705 287.181 127.591 287.917 127.362C288.662 127.134 289.324 126.8 289.9 126.363C290.477 125.915 290.954 125.374 291.332 124.737C291.72 124.101 291.988 123.375 292.138 122.56L298.67 122.589C298.501 123.991 298.079 125.344 297.403 126.646C296.736 127.939 295.836 129.097 294.703 130.121C293.579 131.136 292.237 131.941 290.676 132.538C289.125 133.124 287.37 133.418 285.411 133.418C282.687 133.418 280.251 132.801 278.103 131.568C275.965 130.335 274.275 128.55 273.032 126.214C271.799 123.877 271.182 121.048 271.182 117.727C271.182 114.396 271.809 111.562 273.062 109.226C274.314 106.889 276.015 105.109 278.162 103.886C280.31 102.653 282.726 102.037 285.411 102.037C287.181 102.037 288.822 102.286 290.333 102.783C291.854 103.28 293.202 104.006 294.375 104.96C295.548 105.905 296.503 107.063 297.238 108.435C297.984 109.808 298.461 111.379 298.67 113.148ZM303.301 133V102.455H323.884V107.779H309.759V115.058H322.825V120.382H309.759V127.675H323.943V133H303.301Z" fill="white"/>
<defs>
<linearGradient id="paint0_linear_2784_10411" x1="111" y1="121" x2="246" y2="-14" gradientUnits="userSpaceOnUse">
<stop stop-color="#14365B" stop-opacity="0.25"/>
<stop offset="1" stop-color="#14365B"/>
</linearGradient>
</defs>
</svg>
