<svg width="72" height="72" viewBox="0 0 72 72" fill="none" xmlns="http://www.w3.org/2000/svg">
<path d="M63.4709 35.9229C63.4709 51.1879 51.0961 63.5627 35.8311 63.5627C20.5661 63.5627 8.19141 51.1879 8.19141 35.9229C8.19141 20.6579 20.5661 8.2832 35.8311 8.2832C51.4156 8.00797 63.8425 20.3428 63.4709 35.9229Z" fill="white"/>
<path d="M36 0C16.116 0 0 16.116 0 36C0 55.884 16.116 72 36 72C55.884 72 72 55.884 72 36C72 16.116 55.8798 0 36 0ZM54.4189 38.9428H38.9428V54.4189C38.9428 56.044 37.6251 57.3617 36 57.3617C34.3749 57.3617 33.0572 56.044 33.0572 54.4189V38.9428H17.5811C15.956 38.9428 14.6383 37.6251 14.6383 36C14.6383 34.3749 15.956 33.0572 17.5811 33.0572H33.0572V17.5811C33.0572 15.956 34.3749 14.6383 36 14.6383C37.6251 14.6383 38.9428 15.956 38.9428 17.5811V33.0572H54.4189C56.044 33.0572 57.3617 34.3749 57.3617 36C57.3617 37.6251 56.044 38.9428 54.4189 38.9428Z" fill="#14365B"/>
</svg>
